G75*
%MOIN*%
%OFA0B0*%
%FSLAX24Y24*%
%IPPOS*%
%LPD*%
%AMOC8*
5,1,8,0,0,1.08239X$1,22.5*
%
%ADD10C,0.0640*%
%ADD11C,0.0555*%
%ADD12C,0.0560*%
%ADD13C,0.0740*%
%ADD14C,0.0160*%
D10*
X002100Y001555D03*
X002100Y002555D03*
X003100Y002555D03*
X003100Y001555D03*
X004100Y001555D03*
X004100Y002555D03*
X005100Y002555D03*
X005100Y001555D03*
X006810Y000775D03*
X008590Y000775D03*
X008590Y003335D03*
X008172Y004405D03*
X008172Y005405D03*
X008172Y006405D03*
X008172Y007405D03*
X008425Y010805D03*
X008425Y011805D03*
X008425Y012805D03*
X007425Y012805D03*
X007425Y011805D03*
X007425Y010805D03*
X002100Y007405D03*
X002100Y006405D03*
X002100Y005405D03*
X002100Y004405D03*
X006810Y003335D03*
D11*
X005950Y010955D03*
X004950Y010955D03*
X003950Y010955D03*
D12*
X002650Y012905D03*
X001650Y012905D03*
X002150Y011405D03*
X002150Y010605D03*
X003600Y008855D03*
X003600Y007405D03*
X003600Y006405D03*
X003600Y005405D03*
X003600Y004405D03*
X006600Y004405D03*
X006600Y005405D03*
X006600Y006405D03*
X006600Y007405D03*
X006600Y008855D03*
D13*
X005500Y012780D03*
X004500Y012780D03*
D14*
X000935Y000627D02*
X000976Y000530D01*
X001050Y000456D01*
X001147Y000415D01*
X001200Y000410D01*
X006524Y000410D01*
X006420Y000514D01*
X006350Y000683D01*
X006350Y000866D01*
X006420Y001036D01*
X006549Y001165D01*
X006718Y001235D01*
X006901Y001235D01*
X007071Y001165D01*
X007200Y001036D01*
X007270Y000866D01*
X007270Y000683D01*
X007200Y000514D01*
X007096Y000410D01*
X008248Y000410D01*
X008209Y000449D01*
X008162Y000513D01*
X008127Y000583D01*
X008102Y000658D01*
X008090Y000736D01*
X008090Y000755D01*
X008570Y000755D01*
X008570Y000795D01*
X008570Y001275D01*
X008551Y001275D01*
X008473Y001263D01*
X008398Y001238D01*
X008328Y001203D01*
X008264Y001156D01*
X008209Y001101D01*
X008162Y001037D01*
X008127Y000967D01*
X008102Y000892D01*
X008090Y000814D01*
X007270Y000814D01*
X007258Y000656D02*
X008103Y000656D01*
X008090Y000795D02*
X008570Y000795D01*
X008610Y000795D01*
X009090Y000795D01*
X009090Y000814D01*
X009340Y000814D01*
X009340Y000680D02*
X009335Y000627D01*
X009295Y000530D01*
X009220Y000456D01*
X009123Y000415D01*
X009070Y000410D01*
X008932Y000410D01*
X008971Y000449D01*
X009018Y000513D01*
X009053Y000583D01*
X009078Y000658D01*
X009090Y000736D01*
X009090Y000755D01*
X008610Y000755D01*
X008610Y000795D01*
X008610Y001275D01*
X008629Y001275D01*
X008707Y001263D01*
X008782Y001238D01*
X008852Y001203D01*
X008916Y001156D01*
X008971Y001101D01*
X009018Y001037D01*
X009053Y000967D01*
X009078Y000892D01*
X009090Y000814D01*
X009077Y000656D02*
X009338Y000656D01*
X009340Y000680D02*
X009340Y013426D01*
X009335Y013479D01*
X009295Y013576D01*
X009220Y013651D01*
X009123Y013691D01*
X009070Y013696D01*
X001200Y013696D01*
X001147Y013691D01*
X001050Y013651D01*
X000976Y013576D01*
X000935Y013479D01*
X000930Y013426D01*
X000930Y000680D01*
X000935Y000627D01*
X000932Y000656D02*
X006362Y000656D01*
X006350Y000814D02*
X000930Y000814D01*
X000930Y000973D02*
X006394Y000973D01*
X006515Y001131D02*
X005367Y001131D01*
X005362Y001127D02*
X005426Y001174D01*
X005481Y001229D01*
X005528Y001293D01*
X005563Y001363D01*
X005588Y001438D01*
X005600Y001516D01*
X005600Y001535D01*
X005120Y001535D01*
X005120Y001575D01*
X005080Y001575D01*
X005080Y002055D01*
X005061Y002055D01*
X004983Y002043D01*
X004908Y002018D01*
X004838Y001983D01*
X004774Y001936D01*
X004719Y001881D01*
X004672Y001817D01*
X004637Y001747D01*
X004612Y001672D01*
X004600Y001594D01*
X004600Y001575D01*
X005080Y001575D01*
X005080Y001535D01*
X004600Y001535D01*
X004600Y001516D01*
X004612Y001438D01*
X004637Y001363D01*
X004672Y001293D01*
X004719Y001229D01*
X004774Y001174D01*
X004838Y001127D01*
X004908Y001092D01*
X004983Y001067D01*
X005061Y001055D01*
X005080Y001055D01*
X005080Y001535D01*
X005120Y001535D01*
X005120Y001055D01*
X005139Y001055D01*
X005217Y001067D01*
X005292Y001092D01*
X005362Y001127D01*
X005525Y001290D02*
X009340Y001290D01*
X009340Y001448D02*
X005589Y001448D01*
X005600Y001575D02*
X005600Y001594D01*
X005588Y001672D01*
X005563Y001747D01*
X005528Y001817D01*
X005481Y001881D01*
X005426Y001936D01*
X005362Y001983D01*
X005292Y002018D01*
X005217Y002043D01*
X005139Y002055D01*
X005120Y002055D01*
X005120Y001575D01*
X005600Y001575D01*
X005598Y001607D02*
X009340Y001607D01*
X009340Y001765D02*
X005554Y001765D01*
X005439Y001924D02*
X009340Y001924D01*
X009340Y002082D02*
X000930Y002082D01*
X000930Y001924D02*
X001761Y001924D01*
X001774Y001936D02*
X001719Y001881D01*
X001672Y001817D01*
X001637Y001747D01*
X001612Y001672D01*
X001600Y001594D01*
X001600Y001575D01*
X002080Y001575D01*
X002080Y002055D01*
X002061Y002055D01*
X001983Y002043D01*
X001908Y002018D01*
X001838Y001983D01*
X001774Y001936D01*
X001646Y001765D02*
X000930Y001765D01*
X000930Y001607D02*
X001602Y001607D01*
X001600Y001535D02*
X001600Y001516D01*
X001612Y001438D01*
X001637Y001363D01*
X001672Y001293D01*
X001719Y001229D01*
X001774Y001174D01*
X001838Y001127D01*
X001908Y001092D01*
X001983Y001067D01*
X002061Y001055D01*
X002080Y001055D01*
X002080Y001535D01*
X002120Y001535D01*
X002120Y001575D01*
X002080Y001575D01*
X002080Y001535D01*
X001600Y001535D01*
X001611Y001448D02*
X000930Y001448D01*
X000930Y001290D02*
X001675Y001290D01*
X001833Y001131D02*
X000930Y001131D01*
X001008Y000497D02*
X006437Y000497D01*
X007105Y001131D02*
X008239Y001131D01*
X008129Y000973D02*
X007226Y000973D01*
X007183Y000497D02*
X008174Y000497D01*
X008090Y000795D02*
X008090Y000814D01*
X008570Y000814D02*
X008610Y000814D01*
X008610Y000973D02*
X008570Y000973D01*
X008570Y001131D02*
X008610Y001131D01*
X008941Y001131D02*
X009340Y001131D01*
X009340Y000973D02*
X009051Y000973D01*
X009006Y000497D02*
X009262Y000497D01*
X009340Y002241D02*
X005436Y002241D01*
X005490Y002294D02*
X005560Y002463D01*
X005560Y002646D01*
X005490Y002816D01*
X005361Y002945D01*
X005191Y003015D01*
X005008Y003015D01*
X004839Y002945D01*
X004710Y002816D01*
X004640Y002646D01*
X004640Y002463D01*
X004710Y002294D01*
X004839Y002165D01*
X005008Y002095D01*
X005191Y002095D01*
X005361Y002165D01*
X005490Y002294D01*
X005533Y002399D02*
X009340Y002399D01*
X009340Y002558D02*
X005560Y002558D01*
X005531Y002716D02*
X009340Y002716D01*
X009340Y002875D02*
X005431Y002875D01*
X004769Y002875D02*
X004431Y002875D01*
X004490Y002816D02*
X004361Y002945D01*
X004191Y003015D01*
X004008Y003015D01*
X003839Y002945D01*
X003710Y002816D01*
X003640Y002646D01*
X003640Y002463D01*
X003710Y002294D01*
X003839Y002165D01*
X004008Y002095D01*
X004191Y002095D01*
X004361Y002165D01*
X004490Y002294D01*
X004560Y002463D01*
X004560Y002646D01*
X004490Y002816D01*
X004531Y002716D02*
X004669Y002716D01*
X004640Y002558D02*
X004560Y002558D01*
X004533Y002399D02*
X004667Y002399D01*
X004764Y002241D02*
X004436Y002241D01*
X004292Y002018D02*
X004217Y002043D01*
X004139Y002055D01*
X004120Y002055D01*
X004120Y001575D01*
X004080Y001575D01*
X004080Y002055D01*
X004061Y002055D01*
X003983Y002043D01*
X003908Y002018D01*
X003838Y001983D01*
X003774Y001936D01*
X003719Y001881D01*
X003672Y001817D01*
X003637Y001747D01*
X003612Y001672D01*
X003600Y001594D01*
X003588Y001672D01*
X003563Y001747D01*
X003528Y001817D01*
X003481Y001881D01*
X003426Y001936D01*
X003362Y001983D01*
X003292Y002018D01*
X003217Y002043D01*
X003139Y002055D01*
X003120Y002055D01*
X003120Y001575D01*
X003080Y001575D01*
X003080Y002055D01*
X003061Y002055D01*
X002983Y002043D01*
X002908Y002018D01*
X002838Y001983D01*
X002774Y001936D01*
X002719Y001881D01*
X002672Y001817D01*
X002637Y001747D01*
X002612Y001672D01*
X002600Y001594D01*
X002600Y001575D01*
X003080Y001575D01*
X003080Y001535D01*
X002600Y001535D01*
X002600Y001516D01*
X002612Y001438D01*
X002637Y001363D01*
X002672Y001293D01*
X002719Y001229D01*
X002774Y001174D01*
X002838Y001127D01*
X002908Y001092D01*
X002983Y001067D01*
X003061Y001055D01*
X003080Y001055D01*
X003080Y001535D01*
X003120Y001535D01*
X003120Y001575D01*
X003600Y001575D01*
X004080Y001575D01*
X004080Y001535D01*
X003600Y001535D01*
X003120Y001535D01*
X003120Y001055D01*
X003139Y001055D01*
X003217Y001067D01*
X003292Y001092D01*
X003362Y001127D01*
X003426Y001174D01*
X003481Y001229D01*
X003528Y001293D01*
X003563Y001363D01*
X003588Y001438D01*
X003600Y001516D01*
X003600Y001535D01*
X003600Y001516D01*
X003612Y001438D01*
X003637Y001363D01*
X003672Y001293D01*
X003719Y001229D01*
X003774Y001174D01*
X003838Y001127D01*
X003908Y001092D01*
X003983Y001067D01*
X004061Y001055D01*
X004080Y001055D01*
X004080Y001535D01*
X004120Y001535D01*
X004120Y001575D01*
X004600Y001575D01*
X004600Y001594D01*
X004588Y001672D01*
X004563Y001747D01*
X004528Y001817D01*
X004481Y001881D01*
X004426Y001936D01*
X004362Y001983D01*
X004292Y002018D01*
X004439Y001924D02*
X004761Y001924D01*
X004646Y001765D02*
X004554Y001765D01*
X004598Y001607D02*
X004602Y001607D01*
X004600Y001535D02*
X004120Y001535D01*
X004120Y001055D01*
X004139Y001055D01*
X004217Y001067D01*
X004292Y001092D01*
X004362Y001127D01*
X004426Y001174D01*
X004481Y001229D01*
X004528Y001293D01*
X004563Y001363D01*
X004588Y001438D01*
X004600Y001516D01*
X004600Y001535D01*
X004589Y001448D02*
X004611Y001448D01*
X004675Y001290D02*
X004525Y001290D01*
X004367Y001131D02*
X004833Y001131D01*
X005080Y001131D02*
X005120Y001131D01*
X005120Y001290D02*
X005080Y001290D01*
X005080Y001448D02*
X005120Y001448D01*
X005100Y001555D02*
X004100Y001555D01*
X003100Y001555D01*
X002100Y001555D01*
X002120Y001575D02*
X002120Y002055D01*
X002139Y002055D01*
X002217Y002043D01*
X002292Y002018D01*
X002362Y001983D01*
X002426Y001936D01*
X002481Y001881D01*
X002528Y001817D01*
X002563Y001747D01*
X002588Y001672D01*
X002600Y001594D01*
X002600Y001575D01*
X002120Y001575D01*
X002120Y001607D02*
X002080Y001607D01*
X002120Y001535D02*
X002600Y001535D01*
X002600Y001516D01*
X002588Y001438D01*
X002563Y001363D01*
X002528Y001293D01*
X002481Y001229D01*
X002426Y001174D01*
X002362Y001127D01*
X002292Y001092D01*
X002217Y001067D01*
X002139Y001055D01*
X002120Y001055D01*
X002120Y001535D01*
X002120Y001448D02*
X002080Y001448D01*
X002080Y001290D02*
X002120Y001290D01*
X002120Y001131D02*
X002080Y001131D01*
X002367Y001131D02*
X002833Y001131D01*
X002675Y001290D02*
X002525Y001290D01*
X002589Y001448D02*
X002611Y001448D01*
X002598Y001607D02*
X002602Y001607D01*
X002646Y001765D02*
X002554Y001765D01*
X002439Y001924D02*
X002761Y001924D01*
X002839Y002165D02*
X003008Y002095D01*
X003191Y002095D01*
X003361Y002165D01*
X003490Y002294D01*
X003560Y002463D01*
X003560Y002646D01*
X003490Y002816D01*
X003361Y002945D01*
X003191Y003015D01*
X003008Y003015D01*
X002839Y002945D01*
X002710Y002816D01*
X002640Y002646D01*
X002640Y002463D01*
X002710Y002294D01*
X002839Y002165D01*
X002764Y002241D02*
X002436Y002241D01*
X002490Y002294D02*
X002560Y002463D01*
X002560Y002646D01*
X002490Y002816D01*
X002361Y002945D01*
X002191Y003015D01*
X002008Y003015D01*
X001839Y002945D01*
X001710Y002816D01*
X001640Y002646D01*
X001640Y002463D01*
X001710Y002294D01*
X001839Y002165D01*
X002008Y002095D01*
X002191Y002095D01*
X002361Y002165D01*
X002490Y002294D01*
X002533Y002399D02*
X002667Y002399D01*
X002640Y002558D02*
X002560Y002558D01*
X002531Y002716D02*
X002669Y002716D01*
X002769Y002875D02*
X002431Y002875D01*
X001769Y002875D02*
X000930Y002875D01*
X000930Y003033D02*
X006461Y003033D01*
X006420Y003074D02*
X006350Y003243D01*
X006350Y003426D01*
X006420Y003596D01*
X006549Y003725D01*
X006718Y003795D01*
X006901Y003795D01*
X007071Y003725D01*
X007200Y003596D01*
X007270Y003426D01*
X007270Y003243D01*
X007200Y003074D01*
X007071Y002945D01*
X006901Y002875D01*
X006718Y002875D01*
X006549Y002945D01*
X006420Y003074D01*
X006372Y003192D02*
X000930Y003192D01*
X000930Y003350D02*
X006350Y003350D01*
X006384Y003509D02*
X000930Y003509D01*
X000930Y003667D02*
X006491Y003667D01*
X006516Y003985D02*
X006362Y004049D01*
X006244Y004167D01*
X006180Y004321D01*
X006180Y004489D01*
X006244Y004643D01*
X006362Y004761D01*
X006516Y004825D01*
X006684Y004825D01*
X006838Y004761D01*
X006956Y004643D01*
X006963Y004625D01*
X007766Y004625D01*
X007782Y004666D01*
X007912Y004795D01*
X008081Y004865D01*
X008264Y004865D01*
X008433Y004795D01*
X008562Y004666D01*
X008632Y004496D01*
X008632Y004313D01*
X008562Y004144D01*
X008433Y004015D01*
X008264Y003945D01*
X008081Y003945D01*
X007912Y004015D01*
X007782Y004144D01*
X007766Y004185D01*
X006963Y004185D01*
X006956Y004167D01*
X006838Y004049D01*
X006684Y003985D01*
X006516Y003985D01*
X006269Y004143D02*
X003978Y004143D01*
X003993Y004164D02*
X004026Y004228D01*
X004049Y004297D01*
X004060Y004369D01*
X004060Y004405D01*
X004060Y004441D01*
X004049Y004513D01*
X004026Y004582D01*
X003993Y004646D01*
X003951Y004705D01*
X003900Y004756D01*
X003841Y004798D01*
X003777Y004831D01*
X003708Y004854D01*
X003636Y004865D01*
X003600Y004865D01*
X003600Y004405D01*
X002100Y004405D01*
X002120Y004425D02*
X002600Y004425D01*
X002600Y004444D01*
X002588Y004522D01*
X002563Y004597D01*
X002528Y004667D01*
X002481Y004731D01*
X002426Y004786D01*
X002362Y004833D01*
X002292Y004868D01*
X002217Y004893D01*
X002139Y004905D01*
X002120Y004905D01*
X002120Y004425D01*
X002120Y004385D01*
X002600Y004385D01*
X002600Y004366D01*
X002588Y004288D01*
X002563Y004213D01*
X002528Y004143D01*
X002481Y004079D01*
X002426Y004024D01*
X002362Y003977D01*
X002292Y003942D01*
X002217Y003917D01*
X002139Y003905D01*
X002120Y003905D01*
X002120Y004385D01*
X002080Y004385D01*
X002080Y003905D01*
X002061Y003905D01*
X001983Y003917D01*
X001908Y003942D01*
X001838Y003977D01*
X001774Y004024D01*
X001719Y004079D01*
X001672Y004143D01*
X001637Y004213D01*
X001612Y004288D01*
X001600Y004366D01*
X001600Y004385D01*
X002080Y004385D01*
X002080Y004425D01*
X002080Y004905D01*
X002061Y004905D01*
X001983Y004893D01*
X001908Y004868D01*
X001838Y004833D01*
X001774Y004786D01*
X001719Y004731D01*
X001672Y004667D01*
X001637Y004597D01*
X001612Y004522D01*
X001600Y004444D01*
X001600Y004425D01*
X002080Y004425D01*
X002120Y004425D01*
X002120Y004460D02*
X002080Y004460D01*
X002080Y004618D02*
X002120Y004618D01*
X002120Y004777D02*
X002080Y004777D01*
X002008Y004945D02*
X002191Y004945D01*
X002361Y005015D01*
X002490Y005144D01*
X002507Y005185D01*
X003237Y005185D01*
X003244Y005167D01*
X003362Y005049D01*
X003516Y004985D01*
X003684Y004985D01*
X003838Y005049D01*
X003956Y005167D01*
X003968Y005195D01*
X004208Y005295D01*
X004410Y005497D01*
X004520Y005762D01*
X004520Y010743D01*
X004433Y010953D01*
X004367Y011019D01*
X004367Y011038D01*
X004317Y011160D01*
X004541Y011160D01*
X004526Y011131D01*
X004504Y011062D01*
X004493Y010991D01*
X004493Y010955D01*
X004950Y010955D01*
X005407Y010955D01*
X004950Y010955D01*
X004950Y010955D01*
X004950Y010498D01*
X004986Y010498D01*
X005057Y010509D01*
X005126Y010531D01*
X005190Y010564D01*
X005248Y010606D01*
X005299Y010657D01*
X005341Y010715D01*
X005374Y010779D01*
X005396Y010848D01*
X005407Y010919D01*
X005407Y010955D01*
X005407Y010991D01*
X005396Y011062D01*
X005374Y011131D01*
X005359Y011160D01*
X005583Y011160D01*
X005533Y011038D01*
X005533Y010872D01*
X005596Y010719D01*
X005714Y010601D01*
X005867Y010538D01*
X006033Y010538D01*
X006186Y010601D01*
X006304Y010719D01*
X006367Y010872D01*
X006367Y010952D01*
X006375Y010935D01*
X006380Y010880D01*
X006380Y009218D01*
X006362Y009211D01*
X006244Y009093D01*
X006180Y008939D01*
X006180Y008771D01*
X006244Y008617D01*
X006362Y008499D01*
X006380Y008492D01*
X006380Y007768D01*
X006362Y007761D01*
X006244Y007643D01*
X006180Y007489D01*
X006180Y007289D01*
X006203Y007266D01*
X006244Y007167D01*
X006362Y007049D01*
X006516Y006985D01*
X006684Y006985D01*
X006838Y007049D01*
X006956Y007167D01*
X006963Y007185D01*
X007766Y007185D01*
X007782Y007144D01*
X007912Y007015D01*
X008081Y006945D01*
X008264Y006945D01*
X008433Y007015D01*
X008480Y007062D01*
X008480Y006905D01*
X008475Y006850D01*
X008446Y006782D01*
X008433Y006795D01*
X008264Y006865D01*
X008081Y006865D01*
X007912Y006795D01*
X007782Y006666D01*
X007766Y006625D01*
X006963Y006625D01*
X006956Y006643D01*
X006838Y006761D01*
X006684Y006825D01*
X006516Y006825D01*
X006362Y006761D01*
X006244Y006643D01*
X006180Y006489D01*
X006180Y006321D01*
X006244Y006167D01*
X006362Y006049D01*
X006516Y005985D01*
X006684Y005985D01*
X006838Y006049D01*
X006956Y006167D01*
X006963Y006185D01*
X007766Y006185D01*
X007782Y006144D01*
X007912Y006015D01*
X008081Y005945D01*
X008264Y005945D01*
X008433Y006015D01*
X008562Y006144D01*
X008632Y006313D01*
X008632Y006319D01*
X008810Y006497D01*
X008920Y006762D01*
X008920Y007723D01*
X008810Y007988D01*
X008617Y008182D01*
X008687Y008211D01*
X008929Y008453D01*
X009060Y008769D01*
X009060Y009111D01*
X008929Y009427D01*
X008687Y009669D01*
X008371Y009800D01*
X008029Y009800D01*
X007713Y009669D01*
X007620Y009576D01*
X007620Y010092D01*
X007808Y010170D01*
X008010Y010372D01*
X008010Y010372D01*
X008051Y010471D01*
X008099Y010424D01*
X008163Y010377D01*
X008233Y010342D01*
X008308Y010317D01*
X008386Y010305D01*
X008405Y010305D01*
X008405Y010785D01*
X008445Y010785D01*
X008445Y010825D01*
X008405Y010825D01*
X008405Y011305D01*
X008386Y011305D01*
X008308Y011293D01*
X008233Y011268D01*
X008163Y011233D01*
X008120Y011201D01*
X008120Y011459D01*
X008164Y011415D01*
X008333Y011345D01*
X008516Y011345D01*
X008686Y011415D01*
X008815Y011544D01*
X008885Y011713D01*
X008885Y011896D01*
X008815Y012066D01*
X008686Y012195D01*
X008516Y012265D01*
X008333Y012265D01*
X008164Y012195D01*
X008035Y012066D01*
X007965Y011896D01*
X007965Y011773D01*
X007885Y011853D01*
X007885Y011896D01*
X007815Y012066D01*
X007686Y012195D01*
X007516Y012265D01*
X007333Y012265D01*
X007164Y012195D01*
X007035Y012066D01*
X006965Y011896D01*
X006965Y011713D01*
X007035Y011544D01*
X007164Y011415D01*
X007333Y011345D01*
X007516Y011345D01*
X007664Y011406D01*
X007675Y011380D01*
X007680Y011330D01*
X007680Y011197D01*
X007516Y011265D01*
X007333Y011265D01*
X007164Y011195D01*
X007035Y011066D01*
X006965Y010896D01*
X006965Y010713D01*
X007035Y010544D01*
X007164Y010415D01*
X007206Y010398D01*
X007180Y010371D01*
X007180Y008437D01*
X007290Y008172D01*
X007492Y007970D01*
X007757Y007860D01*
X008069Y007860D01*
X007912Y007795D01*
X007782Y007666D01*
X007766Y007625D01*
X006963Y007625D01*
X006956Y007643D01*
X006838Y007761D01*
X006820Y007768D01*
X006820Y008492D01*
X006838Y008499D01*
X006956Y008617D01*
X007020Y008771D01*
X007020Y008939D01*
X006956Y009093D01*
X006838Y009211D01*
X006820Y009218D01*
X006820Y011023D01*
X006710Y011288D01*
X006508Y011490D01*
X006508Y011490D01*
X006243Y011600D01*
X002524Y011600D01*
X002506Y011643D01*
X002388Y011761D01*
X002234Y011825D01*
X002066Y011825D01*
X001912Y011761D01*
X001794Y011643D01*
X001730Y011489D01*
X001730Y011321D01*
X001794Y011167D01*
X001912Y011049D01*
X001965Y011027D01*
X001909Y010998D01*
X001850Y010956D01*
X001799Y010905D01*
X001757Y010846D01*
X001724Y010782D01*
X001701Y010713D01*
X001690Y010641D01*
X000930Y010641D01*
X000930Y010483D02*
X001706Y010483D01*
X001701Y010497D02*
X001724Y010428D01*
X001757Y010364D01*
X001799Y010305D01*
X001850Y010254D01*
X001909Y010212D01*
X001973Y010179D01*
X002042Y010156D01*
X002114Y010145D01*
X002150Y010145D01*
X002186Y010145D01*
X002258Y010156D01*
X002327Y010179D01*
X002391Y010212D01*
X002450Y010254D01*
X002501Y010305D01*
X002543Y010364D01*
X002576Y010428D01*
X002599Y010497D01*
X002610Y010569D01*
X002610Y010605D01*
X002610Y010641D01*
X003674Y010641D01*
X003714Y010601D02*
X003867Y010538D01*
X004033Y010538D01*
X004080Y010557D01*
X004080Y005905D01*
X004075Y005850D01*
X004033Y005749D01*
X003956Y005672D01*
X003935Y005664D01*
X003838Y005761D01*
X003684Y005825D01*
X003516Y005825D01*
X003362Y005761D01*
X003244Y005643D01*
X003237Y005625D01*
X002507Y005625D01*
X002490Y005666D01*
X002361Y005795D01*
X002191Y005865D01*
X002008Y005865D01*
X001839Y005795D01*
X001710Y005666D01*
X001640Y005496D01*
X001640Y005313D01*
X001710Y005144D01*
X001839Y005015D01*
X002008Y004945D01*
X001761Y005094D02*
X000930Y005094D01*
X000930Y004935D02*
X009340Y004935D01*
X009340Y004777D02*
X008451Y004777D01*
X008582Y004618D02*
X009340Y004618D01*
X009340Y004460D02*
X008632Y004460D01*
X008627Y004301D02*
X009340Y004301D01*
X009340Y004143D02*
X008560Y004143D01*
X008358Y003984D02*
X009340Y003984D01*
X009340Y003826D02*
X000930Y003826D01*
X000930Y003984D02*
X001829Y003984D01*
X001673Y004143D02*
X000930Y004143D01*
X000930Y004301D02*
X001610Y004301D01*
X001602Y004460D02*
X000930Y004460D01*
X000930Y004618D02*
X001647Y004618D01*
X001764Y004777D02*
X000930Y004777D01*
X000930Y005252D02*
X001665Y005252D01*
X001640Y005411D02*
X000930Y005411D01*
X000930Y005569D02*
X001670Y005569D01*
X001772Y005728D02*
X000930Y005728D01*
X000930Y005886D02*
X004078Y005886D01*
X004080Y006045D02*
X003827Y006045D01*
X003838Y006049D02*
X003956Y006167D01*
X004020Y006321D01*
X004020Y006489D01*
X003956Y006643D01*
X003838Y006761D01*
X003684Y006825D01*
X003516Y006825D01*
X003362Y006761D01*
X003244Y006643D01*
X003237Y006625D01*
X002507Y006625D01*
X002490Y006666D01*
X002361Y006795D01*
X002191Y006865D01*
X002008Y006865D01*
X001839Y006795D01*
X001710Y006666D01*
X001640Y006496D01*
X001640Y006313D01*
X001710Y006144D01*
X001839Y006015D01*
X002008Y005945D01*
X002191Y005945D01*
X002361Y006015D01*
X002490Y006144D01*
X002507Y006185D01*
X003237Y006185D01*
X003244Y006167D01*
X003362Y006049D01*
X003516Y005985D01*
X003684Y005985D01*
X003838Y006049D01*
X004300Y005905D02*
X004298Y005861D01*
X004292Y005818D01*
X004283Y005776D01*
X004270Y005734D01*
X004253Y005694D01*
X004233Y005655D01*
X004210Y005618D01*
X004183Y005584D01*
X004154Y005551D01*
X004121Y005522D01*
X004087Y005495D01*
X004050Y005472D01*
X004011Y005452D01*
X003971Y005435D01*
X003929Y005422D01*
X003887Y005413D01*
X003844Y005407D01*
X003800Y005405D01*
X003600Y005405D01*
X002100Y005405D01*
X002428Y005728D02*
X003329Y005728D01*
X003373Y006045D02*
X002390Y006045D01*
X002100Y006405D02*
X003600Y006405D01*
X003920Y006679D02*
X004080Y006679D01*
X004080Y006837D02*
X002259Y006837D01*
X002191Y006945D02*
X002361Y007015D01*
X002490Y007144D01*
X002507Y007185D01*
X003237Y007185D01*
X003244Y007167D01*
X003362Y007049D01*
X003516Y006985D01*
X003684Y006985D01*
X003838Y007049D01*
X003956Y007167D01*
X004020Y007321D01*
X004020Y007489D01*
X003956Y007643D01*
X003838Y007761D01*
X003820Y007768D01*
X003820Y008492D01*
X003838Y008499D01*
X003956Y008617D01*
X004020Y008771D01*
X004020Y008939D01*
X003956Y009093D01*
X003838Y009211D01*
X003684Y009275D01*
X003516Y009275D01*
X003362Y009211D01*
X003244Y009093D01*
X003180Y008939D01*
X003180Y008771D01*
X003244Y008617D01*
X003362Y008499D01*
X003380Y008492D01*
X003380Y007768D01*
X003362Y007761D01*
X003244Y007643D01*
X003237Y007625D01*
X002507Y007625D01*
X002490Y007666D01*
X002361Y007795D01*
X002191Y007865D01*
X002008Y007865D01*
X001839Y007795D01*
X001710Y007666D01*
X001640Y007496D01*
X001640Y007313D01*
X001710Y007144D01*
X001839Y007015D01*
X002008Y006945D01*
X002191Y006945D01*
X002313Y006996D02*
X003491Y006996D01*
X003709Y006996D02*
X004080Y006996D01*
X004080Y007154D02*
X003943Y007154D01*
X004016Y007313D02*
X004080Y007313D01*
X004080Y007471D02*
X004020Y007471D01*
X003962Y007630D02*
X004080Y007630D01*
X004080Y007788D02*
X003820Y007788D01*
X003820Y007947D02*
X004080Y007947D01*
X004080Y008105D02*
X003820Y008105D01*
X003820Y008264D02*
X004080Y008264D01*
X004080Y008422D02*
X003820Y008422D01*
X003919Y008581D02*
X004080Y008581D01*
X004080Y008739D02*
X004007Y008739D01*
X004020Y008898D02*
X004080Y008898D01*
X004080Y009056D02*
X003971Y009056D01*
X004080Y009215D02*
X003830Y009215D01*
X004080Y009373D02*
X002851Y009373D01*
X002829Y009427D02*
X002587Y009669D01*
X002271Y009800D01*
X001929Y009800D01*
X001613Y009669D01*
X001371Y009427D01*
X001240Y009111D01*
X001240Y008769D01*
X001371Y008453D01*
X001613Y008211D01*
X001929Y008080D01*
X002271Y008080D01*
X002587Y008211D01*
X002829Y008453D01*
X002960Y008769D01*
X002960Y009111D01*
X002829Y009427D01*
X002724Y009532D02*
X004080Y009532D01*
X004080Y009690D02*
X002536Y009690D01*
X002286Y010166D02*
X004080Y010166D01*
X004080Y010324D02*
X002514Y010324D01*
X002594Y010483D02*
X004080Y010483D01*
X004300Y010630D02*
X004298Y010667D01*
X004292Y010703D01*
X004283Y010738D01*
X004270Y010772D01*
X004253Y010805D01*
X004233Y010836D01*
X004210Y010864D01*
X004184Y010890D01*
X004156Y010913D01*
X004125Y010933D01*
X004092Y010950D01*
X004058Y010963D01*
X004023Y010972D01*
X003987Y010978D01*
X003950Y010980D01*
X003950Y010955D01*
X003565Y011117D02*
X002455Y011117D01*
X002499Y011160D02*
X002388Y011049D01*
X002335Y011027D01*
X002391Y010998D01*
X002450Y010956D01*
X002501Y010905D01*
X002543Y010846D01*
X002576Y010782D01*
X002599Y010713D01*
X002610Y010641D01*
X002610Y010605D02*
X002150Y010605D01*
X002150Y010605D01*
X002610Y010605D01*
X002567Y010800D02*
X003563Y010800D01*
X003533Y010872D02*
X003533Y011038D01*
X003583Y011160D01*
X002499Y011160D01*
X002447Y010958D02*
X003533Y010958D01*
X003533Y010872D02*
X003596Y010719D01*
X003714Y010601D01*
X004080Y010007D02*
X000930Y010007D01*
X000930Y009849D02*
X004080Y009849D01*
X004520Y009849D02*
X006380Y009849D01*
X006380Y010007D02*
X004520Y010007D01*
X004520Y010166D02*
X006380Y010166D01*
X006380Y010324D02*
X004520Y010324D01*
X004520Y010483D02*
X006380Y010483D01*
X006380Y010641D02*
X006226Y010641D01*
X006337Y010800D02*
X006380Y010800D01*
X006600Y010880D02*
X006600Y008855D01*
X006600Y007405D01*
X006600Y007380D01*
X006400Y007380D01*
X006600Y007405D02*
X008172Y007405D01*
X008700Y007580D02*
X008698Y007624D01*
X008692Y007667D01*
X008683Y007709D01*
X008670Y007751D01*
X008653Y007791D01*
X008633Y007830D01*
X008610Y007867D01*
X008583Y007901D01*
X008554Y007934D01*
X008521Y007963D01*
X008487Y007990D01*
X008450Y008013D01*
X008411Y008033D01*
X008371Y008050D01*
X008329Y008063D01*
X008287Y008072D01*
X008244Y008078D01*
X008200Y008080D01*
X007900Y008080D01*
X007905Y007788D02*
X006820Y007788D01*
X006820Y007947D02*
X007548Y007947D01*
X007492Y007970D02*
X007492Y007970D01*
X007357Y008105D02*
X006820Y008105D01*
X006820Y008264D02*
X007252Y008264D01*
X007290Y008172D02*
X007290Y008172D01*
X007186Y008422D02*
X006820Y008422D01*
X006919Y008581D02*
X007180Y008581D01*
X007180Y008739D02*
X007007Y008739D01*
X007020Y008898D02*
X007180Y008898D01*
X007180Y009056D02*
X006971Y009056D01*
X006830Y009215D02*
X007180Y009215D01*
X007180Y009373D02*
X006820Y009373D01*
X006820Y009532D02*
X007180Y009532D01*
X007180Y009690D02*
X006820Y009690D01*
X006820Y009849D02*
X007180Y009849D01*
X007180Y010007D02*
X006820Y010007D01*
X006820Y010166D02*
X007180Y010166D01*
X007180Y010324D02*
X006820Y010324D01*
X006820Y010483D02*
X007097Y010483D01*
X006995Y010641D02*
X006820Y010641D01*
X006820Y010800D02*
X006965Y010800D01*
X006990Y010958D02*
X006820Y010958D01*
X006781Y011117D02*
X007086Y011117D01*
X007146Y011434D02*
X006565Y011434D01*
X006710Y011288D02*
X006710Y011288D01*
X006716Y011275D02*
X007680Y011275D01*
X007900Y011330D02*
X007900Y010780D01*
X008010Y010372D02*
X008010Y010372D01*
X007962Y010324D02*
X008287Y010324D01*
X008405Y010324D02*
X008445Y010324D01*
X008445Y010305D02*
X008464Y010305D01*
X008542Y010317D01*
X008617Y010342D01*
X008687Y010377D01*
X008751Y010424D01*
X008806Y010479D01*
X008853Y010543D01*
X008888Y010613D01*
X008913Y010688D01*
X008925Y010766D01*
X008925Y010785D01*
X008445Y010785D01*
X008445Y010305D01*
X008563Y010324D02*
X009340Y010324D01*
X009340Y010166D02*
X007798Y010166D01*
X007620Y010007D02*
X009340Y010007D01*
X009340Y009849D02*
X007620Y009849D01*
X007620Y009690D02*
X007764Y009690D01*
X007400Y010280D02*
X007400Y008580D01*
X007402Y008536D01*
X007408Y008493D01*
X007417Y008451D01*
X007430Y008409D01*
X007447Y008369D01*
X007467Y008330D01*
X007490Y008293D01*
X007517Y008259D01*
X007546Y008226D01*
X007579Y008197D01*
X007613Y008170D01*
X007650Y008147D01*
X007689Y008127D01*
X007729Y008110D01*
X007771Y008097D01*
X007813Y008088D01*
X007856Y008082D01*
X007900Y008080D01*
X007768Y007630D02*
X006962Y007630D01*
X006943Y007154D02*
X007779Y007154D01*
X007959Y006996D02*
X006709Y006996D01*
X006491Y006996D02*
X004520Y006996D01*
X004520Y007154D02*
X006257Y007154D01*
X006180Y007313D02*
X004520Y007313D01*
X004520Y007471D02*
X006180Y007471D01*
X006238Y007630D02*
X004520Y007630D01*
X004520Y007788D02*
X006380Y007788D01*
X006380Y007947D02*
X004520Y007947D01*
X004520Y008105D02*
X006380Y008105D01*
X006380Y008264D02*
X004520Y008264D01*
X004520Y008422D02*
X006380Y008422D01*
X006281Y008581D02*
X004520Y008581D01*
X004520Y008739D02*
X006193Y008739D01*
X006180Y008898D02*
X004520Y008898D01*
X004520Y009056D02*
X006229Y009056D01*
X006370Y009215D02*
X004520Y009215D01*
X004520Y009373D02*
X006380Y009373D01*
X006380Y009532D02*
X004520Y009532D01*
X004520Y009690D02*
X006380Y009690D01*
X006600Y009080D02*
X006600Y008855D01*
X005674Y010641D02*
X005283Y010641D01*
X005381Y010800D02*
X005563Y010800D01*
X005533Y010958D02*
X005407Y010958D01*
X005379Y011117D02*
X005565Y011117D01*
X006100Y011380D02*
X006144Y011378D01*
X006187Y011372D01*
X006229Y011363D01*
X006271Y011350D01*
X006311Y011333D01*
X006350Y011313D01*
X006387Y011290D01*
X006421Y011263D01*
X006454Y011234D01*
X006483Y011201D01*
X006510Y011167D01*
X006533Y011130D01*
X006553Y011091D01*
X006570Y011051D01*
X006583Y011009D01*
X006592Y010967D01*
X006598Y010924D01*
X006600Y010880D01*
X006100Y011380D02*
X002125Y011380D01*
X002133Y011381D01*
X002140Y011385D01*
X002145Y011390D01*
X002149Y011397D01*
X002150Y011405D01*
X001902Y011751D02*
X000930Y011751D01*
X000930Y011592D02*
X001773Y011592D01*
X001730Y011434D02*
X000930Y011434D01*
X000930Y011275D02*
X001749Y011275D01*
X001845Y011117D02*
X000930Y011117D01*
X000930Y010958D02*
X001853Y010958D01*
X001733Y010800D02*
X000930Y010800D01*
X000930Y010324D02*
X001786Y010324D01*
X001701Y010497D02*
X001690Y010569D01*
X001690Y010605D01*
X002150Y010605D01*
X002150Y010145D01*
X002150Y010605D01*
X002150Y010605D01*
X002150Y010605D01*
X001690Y010605D01*
X001690Y010641D01*
X002150Y010483D02*
X002150Y010483D01*
X002150Y010324D02*
X002150Y010324D01*
X002150Y010166D02*
X002150Y010166D01*
X002014Y010166D02*
X000930Y010166D01*
X000930Y009690D02*
X001664Y009690D01*
X001476Y009532D02*
X000930Y009532D01*
X000930Y009373D02*
X001349Y009373D01*
X001283Y009215D02*
X000930Y009215D01*
X000930Y009056D02*
X001240Y009056D01*
X001240Y008898D02*
X000930Y008898D01*
X000930Y008739D02*
X001252Y008739D01*
X001318Y008581D02*
X000930Y008581D01*
X000930Y008422D02*
X001402Y008422D01*
X001560Y008264D02*
X000930Y008264D01*
X000930Y008105D02*
X001868Y008105D01*
X001832Y007788D02*
X000930Y007788D01*
X000930Y007947D02*
X003380Y007947D01*
X003380Y008105D02*
X002332Y008105D01*
X002368Y007788D02*
X003380Y007788D01*
X003238Y007630D02*
X002505Y007630D01*
X002494Y007154D02*
X003257Y007154D01*
X003600Y007405D02*
X003600Y008855D01*
X003281Y008581D02*
X002882Y008581D01*
X002948Y008739D02*
X003193Y008739D01*
X003180Y008898D02*
X002960Y008898D01*
X002960Y009056D02*
X003229Y009056D01*
X003370Y009215D02*
X002917Y009215D01*
X002798Y008422D02*
X003380Y008422D01*
X003380Y008264D02*
X002640Y008264D01*
X002100Y007405D02*
X003600Y007405D01*
X003280Y006679D02*
X002477Y006679D01*
X001941Y006837D02*
X000930Y006837D01*
X000930Y006679D02*
X001723Y006679D01*
X001650Y006520D02*
X000930Y006520D01*
X000930Y006362D02*
X001640Y006362D01*
X001686Y006203D02*
X000930Y006203D01*
X000930Y006045D02*
X001810Y006045D01*
X001887Y006996D02*
X000930Y006996D01*
X000930Y007154D02*
X001706Y007154D01*
X001640Y007313D02*
X000930Y007313D01*
X000930Y007471D02*
X001640Y007471D01*
X001695Y007630D02*
X000930Y007630D01*
X002439Y005094D02*
X003318Y005094D01*
X003423Y004831D02*
X003359Y004798D01*
X003300Y004756D01*
X003249Y004705D01*
X003207Y004646D01*
X003174Y004582D01*
X003151Y004513D01*
X003140Y004441D01*
X003140Y004405D01*
X003600Y004405D01*
X004060Y004405D01*
X003600Y004405D01*
X003600Y004405D01*
X003600Y004405D01*
X003600Y003945D01*
X003636Y003945D01*
X003708Y003956D01*
X003777Y003979D01*
X003841Y004012D01*
X003900Y004054D01*
X003951Y004105D01*
X003993Y004164D01*
X004049Y004301D02*
X006188Y004301D01*
X006180Y004460D02*
X004057Y004460D01*
X004008Y004618D02*
X006234Y004618D01*
X006399Y004777D02*
X003871Y004777D01*
X003882Y005094D02*
X006318Y005094D01*
X006362Y005049D02*
X006244Y005167D01*
X006180Y005321D01*
X006180Y005489D01*
X006244Y005643D01*
X006362Y005761D01*
X006516Y005825D01*
X006684Y005825D01*
X006838Y005761D01*
X006956Y005643D01*
X006963Y005625D01*
X007766Y005625D01*
X007782Y005666D01*
X007912Y005795D01*
X008081Y005865D01*
X008264Y005865D01*
X008433Y005795D01*
X008562Y005666D01*
X008632Y005496D01*
X008632Y005313D01*
X008562Y005144D01*
X008433Y005015D01*
X008264Y004945D01*
X008081Y004945D01*
X007912Y005015D01*
X007782Y005144D01*
X007766Y005185D01*
X006963Y005185D01*
X006956Y005167D01*
X006838Y005049D01*
X006684Y004985D01*
X006516Y004985D01*
X006362Y005049D01*
X006209Y005252D02*
X004105Y005252D01*
X004208Y005295D02*
X004208Y005295D01*
X004324Y005411D02*
X006180Y005411D01*
X006213Y005569D02*
X004440Y005569D01*
X004410Y005497D02*
X004410Y005497D01*
X004506Y005728D02*
X006329Y005728D01*
X006373Y006045D02*
X004520Y006045D01*
X004520Y006203D02*
X006229Y006203D01*
X006180Y006362D02*
X004520Y006362D01*
X004520Y006520D02*
X006193Y006520D01*
X006280Y006679D02*
X004520Y006679D01*
X004520Y006837D02*
X008013Y006837D01*
X008200Y006405D02*
X008244Y006407D01*
X008287Y006413D01*
X008329Y006422D01*
X008371Y006435D01*
X008411Y006452D01*
X008450Y006472D01*
X008487Y006495D01*
X008521Y006522D01*
X008554Y006551D01*
X008583Y006584D01*
X008610Y006618D01*
X008633Y006655D01*
X008653Y006694D01*
X008670Y006734D01*
X008683Y006776D01*
X008692Y006818D01*
X008698Y006861D01*
X008700Y006905D01*
X008700Y007580D01*
X008920Y007630D02*
X009340Y007630D01*
X009340Y007471D02*
X008920Y007471D01*
X008920Y007313D02*
X009340Y007313D01*
X009340Y007154D02*
X008920Y007154D01*
X008920Y006996D02*
X009340Y006996D01*
X009340Y006837D02*
X008920Y006837D01*
X008886Y006679D02*
X009340Y006679D01*
X009340Y006520D02*
X008820Y006520D01*
X008810Y006497D02*
X008810Y006497D01*
X008675Y006362D02*
X009340Y006362D01*
X009340Y006203D02*
X008587Y006203D01*
X008462Y006045D02*
X009340Y006045D01*
X009340Y005886D02*
X004520Y005886D01*
X004300Y005905D02*
X004300Y010630D01*
X004520Y010641D02*
X004617Y010641D01*
X004601Y010657D02*
X004652Y010606D01*
X004710Y010564D01*
X004774Y010531D01*
X004843Y010509D01*
X004914Y010498D01*
X004950Y010498D01*
X004950Y010955D01*
X004950Y010955D01*
X004950Y010955D01*
X004493Y010955D01*
X004493Y010919D01*
X004504Y010848D01*
X004526Y010779D01*
X004559Y010715D01*
X004601Y010657D01*
X004519Y010800D02*
X004497Y010800D01*
X004493Y010958D02*
X004428Y010958D01*
X004433Y010953D02*
X004433Y010953D01*
X004521Y011117D02*
X004335Y011117D01*
X004950Y010800D02*
X004950Y010800D01*
X004950Y010641D02*
X004950Y010641D01*
X005371Y012244D02*
X005289Y012270D01*
X005212Y012310D01*
X005142Y012360D01*
X005080Y012422D01*
X005030Y012492D01*
X004990Y012569D01*
X004979Y012604D01*
X004932Y012491D01*
X004789Y012348D01*
X004601Y012270D01*
X004399Y012270D01*
X004211Y012348D01*
X004068Y012491D01*
X003990Y012679D01*
X003990Y012881D01*
X004068Y013069D01*
X004211Y013212D01*
X004399Y013290D01*
X004601Y013290D01*
X004789Y013212D01*
X004932Y013069D01*
X004979Y012956D01*
X004990Y012991D01*
X005030Y013068D01*
X005080Y013138D01*
X005142Y013200D01*
X005212Y013250D01*
X005289Y013290D01*
X005371Y013316D01*
X005457Y013330D01*
X005480Y013330D01*
X005480Y012800D01*
X005520Y012800D01*
X005520Y013330D01*
X005543Y013330D01*
X005629Y013316D01*
X005711Y013290D01*
X005788Y013250D01*
X005858Y013200D01*
X005920Y013138D01*
X005970Y013068D01*
X006010Y012991D01*
X006036Y012909D01*
X006050Y012823D01*
X006050Y012800D01*
X005520Y012800D01*
X005520Y012760D01*
X006050Y012760D01*
X006050Y012737D01*
X006036Y012651D01*
X006010Y012569D01*
X005970Y012492D01*
X005920Y012422D01*
X005858Y012360D01*
X005788Y012310D01*
X005711Y012270D01*
X005629Y012244D01*
X005543Y012230D01*
X005520Y012230D01*
X005520Y012760D01*
X005480Y012760D01*
X005480Y012230D01*
X005457Y012230D01*
X005371Y012244D01*
X005480Y012385D02*
X005520Y012385D01*
X005520Y012543D02*
X005480Y012543D01*
X005480Y012702D02*
X005520Y012702D01*
X005520Y012860D02*
X005480Y012860D01*
X005480Y013019D02*
X005520Y013019D01*
X005520Y013177D02*
X005480Y013177D01*
X005119Y013177D02*
X004824Y013177D01*
X004953Y013019D02*
X005004Y013019D01*
X005003Y012543D02*
X004954Y012543D01*
X004826Y012385D02*
X005118Y012385D01*
X005882Y012385D02*
X007238Y012385D01*
X007164Y012415D02*
X007333Y012345D01*
X007516Y012345D01*
X007686Y012415D01*
X007815Y012544D01*
X007885Y012713D01*
X007885Y012896D01*
X007815Y013066D01*
X007686Y013195D01*
X007516Y013265D01*
X007333Y013265D01*
X007164Y013195D01*
X007035Y013066D01*
X006965Y012896D01*
X006965Y012713D01*
X007035Y012544D01*
X007164Y012415D01*
X007036Y012543D02*
X005997Y012543D01*
X006044Y012702D02*
X006970Y012702D01*
X006965Y012860D02*
X006044Y012860D01*
X005996Y013019D02*
X007016Y013019D01*
X007146Y013177D02*
X005881Y013177D01*
X007037Y012068D02*
X000930Y012068D01*
X000930Y012226D02*
X007239Y012226D01*
X006970Y011909D02*
X000930Y011909D01*
X000930Y012385D02*
X004174Y012385D01*
X004046Y012543D02*
X002934Y012543D01*
X002950Y012554D02*
X003001Y012605D01*
X003043Y012664D01*
X003076Y012728D01*
X003099Y012797D01*
X003110Y012869D01*
X003110Y012905D01*
X003110Y012941D01*
X003099Y013013D01*
X003076Y013082D01*
X003043Y013146D01*
X003001Y013205D01*
X002950Y013256D01*
X002891Y013298D01*
X002827Y013331D01*
X002758Y013354D01*
X002686Y013365D01*
X002650Y013365D01*
X002650Y012905D01*
X003110Y012905D01*
X002650Y012905D01*
X002650Y012905D01*
X002650Y012905D01*
X002650Y012445D01*
X002686Y012445D01*
X002758Y012456D01*
X002827Y012479D01*
X002891Y012512D01*
X002950Y012554D01*
X003063Y012702D02*
X003990Y012702D01*
X003990Y012860D02*
X003109Y012860D01*
X003097Y013019D02*
X004047Y013019D01*
X004176Y013177D02*
X003021Y013177D01*
X002814Y013336D02*
X009340Y013336D01*
X009329Y013494D02*
X000942Y013494D01*
X000930Y013336D02*
X002486Y013336D01*
X002473Y013331D02*
X002409Y013298D01*
X002350Y013256D01*
X002299Y013205D01*
X002257Y013146D01*
X002224Y013082D01*
X002201Y013013D01*
X002190Y012941D01*
X002190Y012905D01*
X002650Y012905D01*
X002650Y012905D01*
X002650Y012905D01*
X002650Y013365D01*
X002614Y013365D01*
X002542Y013354D01*
X002473Y013331D01*
X002650Y013336D02*
X002650Y013336D01*
X002650Y013177D02*
X002650Y013177D01*
X002650Y013019D02*
X002650Y013019D01*
X002650Y012905D02*
X002190Y012905D01*
X002190Y012869D01*
X002201Y012797D01*
X002224Y012728D01*
X002257Y012664D01*
X002299Y012605D01*
X002350Y012554D01*
X002409Y012512D01*
X002473Y012479D01*
X002542Y012456D01*
X002614Y012445D01*
X002650Y012445D01*
X002650Y012905D01*
X002650Y012860D02*
X002650Y012860D01*
X002650Y012702D02*
X002650Y012702D01*
X002650Y012543D02*
X002650Y012543D01*
X002366Y012543D02*
X001874Y012543D01*
X001888Y012549D02*
X002006Y012667D01*
X002070Y012821D01*
X002070Y012989D01*
X002006Y013143D01*
X001888Y013261D01*
X001734Y013325D01*
X001566Y013325D01*
X001412Y013261D01*
X001294Y013143D01*
X001230Y012989D01*
X001230Y012821D01*
X001294Y012667D01*
X001412Y012549D01*
X001566Y012485D01*
X001734Y012485D01*
X001888Y012549D01*
X002020Y012702D02*
X002237Y012702D01*
X002191Y012860D02*
X002070Y012860D01*
X002058Y013019D02*
X002203Y013019D01*
X002279Y013177D02*
X001972Y013177D01*
X001426Y012543D02*
X000930Y012543D01*
X000930Y012702D02*
X001280Y012702D01*
X001230Y012860D02*
X000930Y012860D01*
X000930Y013019D02*
X001242Y013019D01*
X001328Y013177D02*
X000930Y013177D01*
X001055Y013653D02*
X009215Y013653D01*
X009340Y013177D02*
X008704Y013177D01*
X008686Y013195D02*
X008516Y013265D01*
X008333Y013265D01*
X008164Y013195D01*
X008035Y013066D01*
X007965Y012896D01*
X007965Y012713D01*
X008035Y012544D01*
X008164Y012415D01*
X008333Y012345D01*
X008516Y012345D01*
X008686Y012415D01*
X008815Y012544D01*
X008885Y012713D01*
X008885Y012896D01*
X008815Y013066D01*
X008686Y013195D01*
X008834Y013019D02*
X009340Y013019D01*
X009340Y012860D02*
X008885Y012860D01*
X008880Y012702D02*
X009340Y012702D01*
X009340Y012543D02*
X008814Y012543D01*
X008612Y012385D02*
X009340Y012385D01*
X009340Y012226D02*
X008611Y012226D01*
X008813Y012068D02*
X009340Y012068D01*
X009340Y011909D02*
X008880Y011909D01*
X008885Y011751D02*
X009340Y011751D01*
X009340Y011592D02*
X008835Y011592D01*
X008704Y011434D02*
X009340Y011434D01*
X009340Y011275D02*
X008596Y011275D01*
X008617Y011268D02*
X008542Y011293D01*
X008464Y011305D01*
X008445Y011305D01*
X008445Y010825D01*
X008925Y010825D01*
X008925Y010844D01*
X008913Y010922D01*
X008888Y010997D01*
X008853Y011067D01*
X008806Y011131D01*
X008751Y011186D01*
X008687Y011233D01*
X008617Y011268D01*
X008445Y011275D02*
X008405Y011275D01*
X008254Y011275D02*
X008120Y011275D01*
X008120Y011434D02*
X008146Y011434D01*
X008405Y011117D02*
X008445Y011117D01*
X008445Y010958D02*
X008405Y010958D01*
X008445Y010800D02*
X009340Y010800D01*
X009340Y010958D02*
X008901Y010958D01*
X008817Y011117D02*
X009340Y011117D01*
X009340Y010641D02*
X008897Y010641D01*
X008809Y010483D02*
X009340Y010483D01*
X009340Y009690D02*
X008636Y009690D01*
X008824Y009532D02*
X009340Y009532D01*
X009340Y009373D02*
X008951Y009373D01*
X009017Y009215D02*
X009340Y009215D01*
X009340Y009056D02*
X009060Y009056D01*
X009060Y008898D02*
X009340Y008898D01*
X009340Y008739D02*
X009048Y008739D01*
X008982Y008581D02*
X009340Y008581D01*
X009340Y008422D02*
X008898Y008422D01*
X008740Y008264D02*
X009340Y008264D01*
X009340Y008105D02*
X008693Y008105D01*
X008810Y007988D02*
X008810Y007988D01*
X008828Y007947D02*
X009340Y007947D01*
X009340Y007788D02*
X008893Y007788D01*
X008480Y006996D02*
X008386Y006996D01*
X008332Y006837D02*
X008469Y006837D01*
X008200Y006405D02*
X008172Y006405D01*
X006600Y006405D01*
X006920Y006679D02*
X007795Y006679D01*
X007882Y006045D02*
X006827Y006045D01*
X006871Y005728D02*
X007844Y005728D01*
X008172Y005405D02*
X006600Y005405D01*
X006882Y005094D02*
X007833Y005094D01*
X007893Y004777D02*
X006801Y004777D01*
X006600Y004405D02*
X008172Y004405D01*
X007987Y003984D02*
X003787Y003984D01*
X003600Y003984D02*
X003600Y003984D01*
X003600Y003945D02*
X003600Y004405D01*
X003600Y004405D01*
X003600Y004405D01*
X003600Y004865D01*
X003564Y004865D01*
X003492Y004854D01*
X003423Y004831D01*
X003329Y004777D02*
X002436Y004777D01*
X002553Y004618D02*
X003192Y004618D01*
X003143Y004460D02*
X002598Y004460D01*
X002590Y004301D02*
X003151Y004301D01*
X003151Y004297D02*
X003174Y004228D01*
X003207Y004164D01*
X003249Y004105D01*
X003300Y004054D01*
X003359Y004012D01*
X003423Y003979D01*
X003492Y003956D01*
X003564Y003945D01*
X003600Y003945D01*
X003413Y003984D02*
X002371Y003984D01*
X002527Y004143D02*
X003222Y004143D01*
X003151Y004297D02*
X003140Y004369D01*
X003140Y004405D01*
X003600Y004405D01*
X003600Y004460D02*
X003600Y004460D01*
X003600Y004618D02*
X003600Y004618D01*
X003600Y004777D02*
X003600Y004777D01*
X003600Y004301D02*
X003600Y004301D01*
X003600Y004143D02*
X003600Y004143D01*
X003431Y002875D02*
X003769Y002875D01*
X003669Y002716D02*
X003531Y002716D01*
X003560Y002558D02*
X003640Y002558D01*
X003667Y002399D02*
X003533Y002399D01*
X003436Y002241D02*
X003764Y002241D01*
X003761Y001924D02*
X003439Y001924D01*
X003554Y001765D02*
X003646Y001765D01*
X003602Y001607D02*
X003598Y001607D01*
X003600Y001594D02*
X003600Y001575D01*
X003600Y001594D01*
X003589Y001448D02*
X003611Y001448D01*
X003675Y001290D02*
X003525Y001290D01*
X003367Y001131D02*
X003833Y001131D01*
X004080Y001131D02*
X004120Y001131D01*
X004120Y001290D02*
X004080Y001290D01*
X004080Y001448D02*
X004120Y001448D01*
X004120Y001607D02*
X004080Y001607D01*
X004080Y001765D02*
X004120Y001765D01*
X004120Y001924D02*
X004080Y001924D01*
X003120Y001924D02*
X003080Y001924D01*
X003080Y001765D02*
X003120Y001765D01*
X003120Y001607D02*
X003080Y001607D01*
X003080Y001448D02*
X003120Y001448D01*
X003120Y001290D02*
X003080Y001290D01*
X003080Y001131D02*
X003120Y001131D01*
X002120Y001765D02*
X002080Y001765D01*
X002080Y001924D02*
X002120Y001924D01*
X001764Y002241D02*
X000930Y002241D01*
X000930Y002399D02*
X001667Y002399D01*
X001640Y002558D02*
X000930Y002558D01*
X000930Y002716D02*
X001669Y002716D01*
X002080Y003984D02*
X002120Y003984D01*
X002120Y004143D02*
X002080Y004143D01*
X002080Y004301D02*
X002120Y004301D01*
X003871Y005728D02*
X004011Y005728D01*
X003971Y006203D02*
X004080Y006203D01*
X004080Y006362D02*
X004020Y006362D01*
X004007Y006520D02*
X004080Y006520D01*
X006931Y004143D02*
X007784Y004143D01*
X008329Y003725D02*
X008200Y003596D01*
X008130Y003426D01*
X008130Y003243D01*
X008200Y003074D01*
X008329Y002945D01*
X008498Y002875D01*
X008681Y002875D01*
X008851Y002945D01*
X008980Y003074D01*
X009050Y003243D01*
X009050Y003426D01*
X008980Y003596D01*
X008851Y003725D01*
X008681Y003795D01*
X008498Y003795D01*
X008329Y003725D01*
X008271Y003667D02*
X007129Y003667D01*
X007236Y003509D02*
X008164Y003509D01*
X008130Y003350D02*
X007270Y003350D01*
X007248Y003192D02*
X008152Y003192D01*
X008241Y003033D02*
X007159Y003033D01*
X008511Y005094D02*
X009340Y005094D01*
X009340Y005252D02*
X008607Y005252D01*
X008632Y005411D02*
X009340Y005411D01*
X009340Y005569D02*
X008602Y005569D01*
X008500Y005728D02*
X009340Y005728D01*
X009340Y003667D02*
X008909Y003667D01*
X009016Y003509D02*
X009340Y003509D01*
X009340Y003350D02*
X009050Y003350D01*
X009028Y003192D02*
X009340Y003192D01*
X009340Y003033D02*
X008939Y003033D01*
X005120Y001924D02*
X005080Y001924D01*
X005080Y001765D02*
X005120Y001765D01*
X005120Y001607D02*
X005080Y001607D01*
X008405Y010483D02*
X008445Y010483D01*
X008445Y010641D02*
X008405Y010641D01*
X007900Y010780D02*
X007898Y010736D01*
X007892Y010693D01*
X007883Y010651D01*
X007870Y010609D01*
X007853Y010569D01*
X007833Y010530D01*
X007810Y010493D01*
X007783Y010459D01*
X007754Y010426D01*
X007721Y010397D01*
X007687Y010370D01*
X007650Y010347D01*
X007611Y010327D01*
X007571Y010310D01*
X007529Y010297D01*
X007487Y010288D01*
X007444Y010282D01*
X007400Y010280D01*
X007900Y011330D02*
X007898Y011371D01*
X007893Y011412D01*
X007884Y011453D01*
X007871Y011492D01*
X007855Y011531D01*
X007836Y011568D01*
X007814Y011602D01*
X007789Y011635D01*
X007761Y011666D01*
X007730Y011694D01*
X007697Y011719D01*
X007663Y011741D01*
X007626Y011760D01*
X007587Y011776D01*
X007548Y011789D01*
X007507Y011798D01*
X007466Y011803D01*
X007425Y011805D01*
X007611Y012226D02*
X008239Y012226D01*
X008238Y012385D02*
X007612Y012385D01*
X007814Y012543D02*
X008036Y012543D01*
X007970Y012702D02*
X007880Y012702D01*
X007885Y012860D02*
X007965Y012860D01*
X008016Y013019D02*
X007834Y013019D01*
X007704Y013177D02*
X008146Y013177D01*
X008037Y012068D02*
X007813Y012068D01*
X007880Y011909D02*
X007970Y011909D01*
X007015Y011592D02*
X006262Y011592D01*
X006965Y011751D02*
X002398Y011751D01*
M02*
