%
M48
M72
T01C0.0315
T02C0.0320
T03C0.0400
T04C0.1260
%
T01
X3950Y10955
X4950Y10955
X5950Y10955
T02
X6600Y8855
X6600Y7405
X6600Y6405
X6600Y5405
X6600Y4405
X3600Y4405
X3600Y5405
X3600Y6405
X3600Y7405
X3600Y8855
X2150Y10605
X2150Y11405
X1650Y12905
X2650Y12905
T03
X2100Y1555
X2100Y2555
X3100Y2555
X3100Y1555
X4100Y1555
X4100Y2555
X5100Y2555
X5100Y1555
X6810Y775
X8590Y775
X8590Y3335
X8172Y4405
X8172Y5405
X8172Y6405
X8172Y7405
X8425Y10805
X8425Y11805
X8425Y12805
X7425Y12805
X7425Y11805
X7425Y10805
X5500Y12780
X4500Y12780
X2100Y7405
X2100Y6405
X2100Y5405
X2100Y4405
X6810Y3335
T04
X8200Y8940
X2100Y8940
M30
