G75*
%MOIN*%
%OFA0B0*%
%FSLAX24Y24*%
%IPPOS*%
%LPD*%
%AMOC8*
5,1,8,0,0,1.08239X$1,22.5*
%
%ADD10C,0.1320*%
%ADD11C,0.0700*%
%ADD12C,0.0615*%
%ADD13C,0.0620*%
%ADD14C,0.0800*%
D10*
X002100Y008940D03*
X008200Y008940D03*
D11*
X002100Y001555D03*
X002100Y002555D03*
X003100Y002555D03*
X003100Y001555D03*
X004100Y001555D03*
X004100Y002555D03*
X005100Y002555D03*
X005100Y001555D03*
X006810Y000775D03*
X008590Y000775D03*
X008590Y003335D03*
X008172Y004405D03*
X008172Y005405D03*
X008172Y006405D03*
X008172Y007405D03*
X008425Y010805D03*
X008425Y011805D03*
X008425Y012805D03*
X007425Y012805D03*
X007425Y011805D03*
X007425Y010805D03*
X002100Y007405D03*
X002100Y006405D03*
X002100Y005405D03*
X002100Y004405D03*
X006810Y003335D03*
D12*
X005950Y010955D03*
X004950Y010955D03*
X003950Y010955D03*
D13*
X002650Y012905D03*
X001650Y012905D03*
X002150Y011405D03*
X002150Y010605D03*
X003600Y008855D03*
X003600Y007405D03*
X003600Y006405D03*
X003600Y005405D03*
X003600Y004405D03*
X006600Y004405D03*
X006600Y005405D03*
X006600Y006405D03*
X006600Y007405D03*
X006600Y008855D03*
D14*
X005500Y012780D03*
X004500Y012780D03*
M02*
